<svg xmlns='http://www.w3.org/2000/svg' class="pikchr" viewBox="0 0 765.562 214.056">
<circle cx="5.76" cy="36.72" r="3.6"  style="fill:none;stroke-width:2.16;stroke:rgb(0,0,0);" />
<polygon points="63.36,36.72 51.84,41.04 51.84,32.4" style="fill:rgb(0,0,0)"/>
<path d="M9.36,36.72L57.6,36.72"  style="fill:none;stroke-width:2.16;stroke:rgb(0,0,0);" />
<path d="M78.48,51.84L98.4672,51.84A15.12 15.12 0 0 0 113.587 36.72A15.12 15.12 0 0 0 98.4672 21.6L78.48,21.6A15.12 15.12 0 0 0 63.36 36.72A15.12 15.12 0 0 0 78.48 51.84Z"  style="fill:none;stroke-width:2.16;stroke:rgb(0,0,0);" />
<text x="88.4736" y="36.72" text-anchor="middle" fill="rgb(0,0,0)" dominant-baseline="central">digit</text>
<polygon points="88.4736,6.48 99.9936,2.16 99.9936,10.8" style="fill:rgb(0,0,0)"/>
<path d="M113.587,36.72 L 121.087,36.72 Q 128.587,36.72 128.587,21.72 L 128.587,21.48 Q 128.587,6.48 113.587,6.48 L 109.234,6.48 L 94.2336,6.48"  style="fill:none;stroke-width:2.16;stroke:rgb(0,0,0);" />
<path d="M88.4736,6.48 L 51.84,6.48 Q 36.84,6.48 36.84,21.48 L 36.84,21.72 Q 36.84,36.72 44.34,36.72 L 51.84,36.72"  style="fill:none;stroke-width:2.16;stroke:rgb(0,0,0);" />
<polygon points="176.107,66.96 164.587,71.28 164.587,62.64" style="fill:rgb(0,0,0)"/>
<path d="M113.587,36.72 L 134.587,36.72 Q 149.587,36.72 149.587,51.72 L 149.587,51.96 Q 149.587,66.96 159.967,66.96 L 170.347,66.96"  style="fill:none;stroke-width:2.16;stroke:rgb(0,0,0);" />
<path d="M191.227,82.08A15.12 15.12 0 0 0 206.347 66.96L206.347,66.96A15.12 15.12 0 0 0 191.227 51.84A15.12 15.12 0 0 0 176.107 66.96L176.107,66.96A15.12 15.12 0 0 0 191.227 82.08Z"  style="fill:none;stroke-width:2.16;stroke:rgb(0,0,0);" />
<text x="191.227" y="66.96" text-anchor="middle" font-weight="bold" fill="rgb(0,0,0)" dominant-baseline="central">.</text>
<polygon points="267.461,66.96 255.941,71.28 255.941,62.64" style="fill:rgb(0,0,0)"/>
<path d="M206.347,66.96L261.701,66.96"  style="fill:none;stroke-width:2.16;stroke:rgb(0,0,0);" />
<polygon points="340.094,66.96 328.574,71.28 328.574,62.64" style="fill:rgb(0,0,0)"/>
<path d="M267.461,66.96L334.334,66.96"  style="fill:none;stroke-width:2.16;stroke:rgb(0,0,0);" />
<polygon points="381.614,36.72 370.094,41.04 370.094,32.4" style="fill:rgb(0,0,0)"/>
<path d="M340.094,66.96 L 347.594,66.96 Q 355.094,66.96 355.094,51.96 L 355.094,51.72 Q 355.094,36.72 365.474,36.72 L 375.854,36.72"  style="fill:none;stroke-width:2.16;stroke:rgb(0,0,0);" />
<polygon points="423.134,74.52 411.614,78.84 411.614,70.2" style="fill:rgb(0,0,0)"/>
<path d="M381.614,36.72 L 389.114,36.72 Q 396.614,36.72 396.614,51.72 L 396.614,59.52 Q 396.614,74.52 406.994,74.52 L 417.374,74.52"  style="fill:none;stroke-width:2.16;stroke:rgb(0,0,0);" />
<path d="M438.254,89.64A15.12 15.12 0 0 0 453.374 74.52L453.374,74.52A15.12 15.12 0 0 0 438.254 59.4A15.12 15.12 0 0 0 423.134 74.52L423.134,74.52A15.12 15.12 0 0 0 438.254 89.64Z"  style="fill:none;stroke-width:2.16;stroke:rgb(0,0,0);" />
<text x="438.254" y="74.52" text-anchor="middle" font-weight="bold" fill="rgb(0,0,0)" dominant-baseline="central">E</text>
<polygon points="494.894,74.52 483.374,78.84 483.374,70.2" style="fill:rgb(0,0,0)"/>
<path d="M453.374,74.52L489.134,74.52"  style="fill:none;stroke-width:2.16;stroke:rgb(0,0,0);" />
<polygon points="423.134,112.32 411.614,116.64 411.614,108" style="fill:rgb(0,0,0)"/>
<path d="M381.614,36.72 L 389.114,36.72 Q 396.614,36.72 396.614,51.72 L 396.614,97.32 Q 396.614,112.32 406.994,112.32 L 417.374,112.32"  style="fill:none;stroke-width:2.16;stroke:rgb(0,0,0);" />
<path d="M438.254,127.44A15.12 15.12 0 0 0 453.374 112.32A15.12 15.12 0 0 0 438.254 97.2A15.12 15.12 0 0 0 423.134 112.32A15.12 15.12 0 0 0 438.254 127.44Z"  style="fill:none;stroke-width:2.16;stroke:rgb(0,0,0);" />
<text x="438.254" y="112.32" text-anchor="middle" font-weight="bold" fill="rgb(0,0,0)" dominant-baseline="central">e</text>
<path d="M453.374,112.32 L 460.874,112.32 Q 468.374,112.32 468.374,97.32 L 468.374,89.52 Q 468.374,74.52 475.874,74.52 L 483.374,74.52"  style="fill:none;stroke-width:2.16;stroke:rgb(0,0,0);" />
<path d="M257.467,112.32L277.454,112.32A15.12 15.12 0 0 0 292.574 97.2L292.574,97.2A15.12 15.12 0 0 0 277.454 82.08L257.467,82.08A15.12 15.12 0 0 0 242.347 97.2L242.347,97.2A15.12 15.12 0 0 0 257.467 112.32Z"  style="fill:none;stroke-width:2.16;stroke:rgb(0,0,0);" />
<text x="267.461" y="97.2" text-anchor="middle" fill="rgb(0,0,0)" dominant-baseline="central">digit</text>
<polygon points="292.574,97.2 304.094,92.88 304.094,101.52" style="fill:rgb(0,0,0)"/>
<path d="M267.461,66.96 L 304.094,66.96 Q 319.094,66.96 319.094,81.96 L 319.094,82.2 Q 319.094,97.2 308.714,97.2 L 298.334,97.2"  style="fill:none;stroke-width:2.16;stroke:rgb(0,0,0);" />
<path d="M242.347,97.2 L 234.847,97.2 Q 227.347,97.2 227.347,82.2 L 227.347,81.96 Q 227.347,66.96 234.847,66.96 L 242.347,66.96"  style="fill:none;stroke-width:2.16;stroke:rgb(0,0,0);" />
<polygon points="267.461,36.72 255.941,41.04 255.941,32.4" style="fill:rgb(0,0,0)"/>
<path d="M113.587,36.72L261.701,36.72"  style="fill:none;stroke-width:2.16;stroke:rgb(0,0,0);" />
<path d="M267.461,36.72L370.094,36.72"  style="fill:none;stroke-width:2.16;stroke:rgb(0,0,0);" />
<polygon points="50.88,135 39.36,139.32 39.36,130.68" style="fill:rgb(0,0,0)"/>
<path d="M9.36,36.72 L 16.86,36.72 Q 24.36,36.72 24.36,51.72 L 24.36,120 Q 24.36,135 34.74,135 L 45.12,135"  style="fill:none;stroke-width:2.16;stroke:rgb(0,0,0);" />
<path d="M66,150.12A15.12 15.12 0 0 0 81.12 135A15.12 15.12 0 0 0 66 119.88A15.12 15.12 0 0 0 50.88 135A15.12 15.12 0 0 0 66 150.12Z"  style="fill:none;stroke-width:2.16;stroke:rgb(0,0,0);" />
<text x="66" y="135" text-anchor="middle" font-weight="bold" fill="rgb(0,0,0)" dominant-baseline="central">.</text>
<polygon points="117.12,135 105.6,139.32 105.6,130.68" style="fill:rgb(0,0,0)"/>
<path d="M81.12,135L111.36,135"  style="fill:none;stroke-width:2.16;stroke:rgb(0,0,0);" />
<path d="M132.24,150.12L152.227,150.12A15.12 15.12 0 0 0 167.347 135A15.12 15.12 0 0 0 152.227 119.88L132.24,119.88A15.12 15.12 0 0 0 117.12 135A15.12 15.12 0 0 0 132.24 150.12Z"  style="fill:none;stroke-width:2.16;stroke:rgb(0,0,0);" />
<text x="142.234" y="135" text-anchor="middle" fill="rgb(0,0,0)" dominant-baseline="central">digit</text>
<polygon points="340.094,135 328.574,139.32 328.574,130.68" style="fill:rgb(0,0,0)"/>
<path d="M167.347,135L334.334,135"  style="fill:none;stroke-width:2.16;stroke:rgb(0,0,0);" />
<path d="M340.094,135 L 347.594,135 Q 355.094,135 355.094,120 L 355.094,66.84 L 355.094,51.84"  style="fill:none;stroke-width:2.16;stroke:rgb(0,0,0);" />
<polygon points="142.234,104.76 153.754,100.44 153.754,109.08" style="fill:rgb(0,0,0)"/>
<path d="M167.347,135 L 174.847,135 Q 182.347,135 182.347,120 L 182.347,119.76 Q 182.347,104.76 167.347,104.76 L 162.994,104.76 L 147.994,104.76"  style="fill:none;stroke-width:2.16;stroke:rgb(0,0,0);" />
<path d="M142.234,104.76 L 105.6,104.76 Q 90.6,104.76 90.6,119.76 L 90.6,120 Q 90.6,135 98.1,135 L 105.6,135"  style="fill:none;stroke-width:2.16;stroke:rgb(0,0,0);" />
<polygon points="536.414,142.56 524.894,146.88 524.894,138.24" style="fill:rgb(0,0,0)"/>
<path d="M494.894,74.52 L 502.394,74.52 Q 509.894,74.52 509.894,89.52 L 509.894,127.56 Q 509.894,142.56 520.274,142.56 L 530.654,142.56"  style="fill:none;stroke-width:2.16;stroke:rgb(0,0,0);" />
<path d="M551.534,157.68A15.12 15.12 0 0 0 566.654 142.56A15.12 15.12 0 0 0 551.534 127.44A15.12 15.12 0 0 0 536.414 142.56A15.12 15.12 0 0 0 551.534 157.68Z"  style="fill:none;stroke-width:2.16;stroke:rgb(0,0,0);" />
<text x="551.534" y="142.56" text-anchor="middle" font-weight="bold" fill="rgb(0,0,0)" dominant-baseline="central">-</text>
<polygon points="628.454,74.52 616.934,78.84 616.934,70.2" style="fill:rgb(0,0,0)"/>
<path d="M566.654,142.56 L 574.154,142.56 Q 581.654,142.56 581.654,127.56 L 581.654,89.52 Q 581.654,74.52 596.654,74.52 L 607.694,74.52 L 622.694,74.52"  style="fill:none;stroke-width:2.16;stroke:rgb(0,0,0);" />
<path d="M643.574,89.64L663.562,89.64A15.12 15.12 0 0 0 678.682 74.52L678.682,74.52A15.12 15.12 0 0 0 663.562 59.4L643.574,59.4A15.12 15.12 0 0 0 628.454 74.52L628.454,74.52A15.12 15.12 0 0 0 643.574 89.64Z"  style="fill:none;stroke-width:2.16;stroke:rgb(0,0,0);" />
<text x="653.568" y="74.52" text-anchor="middle" fill="rgb(0,0,0)" dominant-baseline="central">digit</text>
<polygon points="714.682,74.52 703.162,78.84 703.162,70.2" style="fill:rgb(0,0,0)"/>
<path d="M678.682,74.52L708.922,74.52"  style="fill:none;stroke-width:2.16;stroke:rgb(0,0,0);" />
<polygon points="756.202,36.72 744.682,41.04 744.682,32.4" style="fill:rgb(0,0,0)"/>
<path d="M714.682,74.52 L 722.182,74.52 Q 729.682,74.52 729.682,59.52 L 729.682,51.72 Q 729.682,36.72 740.062,36.72 L 750.442,36.72"  style="fill:none;stroke-width:2.16;stroke:rgb(0,0,0);" />
<circle cx="759.802" cy="36.72" r="3.6"  style="fill:none;stroke-width:2.16;stroke:rgb(0,0,0);" />
<polygon points="536.414,104.76 524.894,109.08 524.894,100.44" style="fill:rgb(0,0,0)"/>
<path d="M494.894,74.52 L 502.394,74.52 Q 509.894,74.52 509.894,89.52 L 509.894,89.76 Q 509.894,104.76 520.274,104.76 L 530.654,104.76"  style="fill:none;stroke-width:2.16;stroke:rgb(0,0,0);" />
<path d="M551.534,119.88A15.12 15.12 0 0 0 566.654 104.76A15.12 15.12 0 0 0 551.534 89.64A15.12 15.12 0 0 0 536.414 104.76A15.12 15.12 0 0 0 551.534 119.88Z"  style="fill:none;stroke-width:2.16;stroke:rgb(0,0,0);" />
<text x="551.534" y="104.76" text-anchor="middle" font-weight="bold" fill="rgb(0,0,0)" dominant-baseline="central">+</text>
<path d="M566.654,104.76 L 574.154,104.76 Q 581.654,104.76 581.654,97.26 L 581.654,89.76"  style="fill:none;stroke-width:2.16;stroke:rgb(0,0,0);" />
<polygon points="551.534,36.72 540.014,41.04 540.014,32.4" style="fill:rgb(0,0,0)"/>
<path d="M381.614,36.72L545.774,36.72"  style="fill:none;stroke-width:2.16;stroke:rgb(0,0,0);" />
<path d="M551.534,36.72L744.682,36.72"  style="fill:none;stroke-width:2.16;stroke:rgb(0,0,0);" />
<polygon points="551.534,74.52 540.014,78.84 540.014,70.2" style="fill:rgb(0,0,0)"/>
<path d="M494.894,74.52L545.774,74.52"  style="fill:none;stroke-width:2.16;stroke:rgb(0,0,0);" />
<path d="M551.534,74.52L616.934,74.52"  style="fill:none;stroke-width:2.16;stroke:rgb(0,0,0);" />
<polygon points="653.568,50.328 665.088,46.008 665.088,54.648" style="fill:rgb(0,0,0)"/>
<path d="M678.682,74.52 L 686.182,74.52 Q 693.682,74.52 693.682,62.424 Q 693.682,50.328 678.682,50.328 L 674.328,50.328 L 659.328,50.328"  style="fill:none;stroke-width:2.16;stroke:rgb(0,0,0);" />
<path d="M653.568,50.328 L 616.934,50.328 Q 601.934,50.328 601.934,62.424 Q 601.934,74.52 609.434,74.52 L 616.934,74.52"  style="fill:none;stroke-width:2.16;stroke:rgb(0,0,0);" />
<polygon points="50.88,180.36 39.36,184.68 39.36,176.04" style="fill:rgb(0,0,0)"/>
<path d="M9.36,36.72 L 16.86,36.72 Q 24.36,36.72 24.36,51.72 L 24.36,165.36 Q 24.36,180.36 34.74,180.36 L 45.12,180.36"  style="fill:none;stroke-width:2.16;stroke:rgb(0,0,0);" />
<path d="M66,195.48L69.0758,195.48A15.12 15.12 0 0 0 84.1958 180.36A15.12 15.12 0 0 0 69.0758 165.24L66,165.24A15.12 15.12 0 0 0 50.88 180.36A15.12 15.12 0 0 0 66 195.48Z"  style="fill:none;stroke-width:2.16;stroke:rgb(0,0,0);" />
<text x="67.5379" y="180.36" text-anchor="middle" font-weight="bold" fill="rgb(0,0,0)" dominant-baseline="central">0x</text>
<polygon points="120.196,180.36 108.676,184.68 108.676,176.04" style="fill:rgb(0,0,0)"/>
<path d="M84.1958,180.36L114.436,180.36"  style="fill:none;stroke-width:2.16;stroke:rgb(0,0,0);" />
<path d="M135.316,195.48L185.025,195.48A15.12 15.12 0 0 0 200.145 180.36A15.12 15.12 0 0 0 185.025 165.24L135.316,165.24A15.12 15.12 0 0 0 120.196 180.36A15.12 15.12 0 0 0 135.316 195.48Z"  style="fill:none;stroke-width:2.16;stroke:rgb(0,0,0);" />
<text x="160.17" y="180.36" text-anchor="middle" fill="rgb(0,0,0)" dominant-baseline="central">hexdigit</text>
<polygon points="714.682,180.36 703.162,184.68 703.162,176.04" style="fill:rgb(0,0,0)"/>
<path d="M200.145,180.36L708.922,180.36"  style="fill:none;stroke-width:2.16;stroke:rgb(0,0,0);" />
<path d="M714.682,180.36 L 722.182,180.36 Q 729.682,180.36 729.682,165.36 L 729.682,74.4 L 729.682,59.4"  style="fill:none;stroke-width:2.16;stroke:rgb(0,0,0);" />
<polygon points="160.17,207.576 171.69,203.256 171.69,211.896" style="fill:rgb(0,0,0)"/>
<path d="M200.145,180.36 L 207.645,180.36 Q 215.145,180.36 215.145,193.968 Q 215.145,207.576 200.145,207.576 L 180.93,207.576 L 165.93,207.576"  style="fill:none;stroke-width:2.16;stroke:rgb(0,0,0);" />
<path d="M160.17,207.576 L 108.676,207.576 Q 93.6758,207.576 93.6758,193.968 Q 93.6758,180.36 101.176,180.36 L 108.676,180.36"  style="fill:none;stroke-width:2.16;stroke:rgb(0,0,0);" />
</svg>

